<svg xmlns="http://www.w3.org/2000/svg" width="48.609" height="45.602" viewBox="0 0 48.609 45.602"><defs><style>.a{fill:#168eea;}</style></defs><g transform="translate(0 -1.376)"><g transform="translate(0 1.376)"><path class="a" d="M24.512,37.68a5.337,5.337,0,0,0-4.252,3.586l-1.816,5.712H48.609l-1.816-5.712a5.336,5.336,0,0,0-4.252-3.586L37.425,36.8v-.381a7.406,7.406,0,0,0,3.751-4.95,3,3,0,0,0,2.486-2.881V21.325A4.656,4.656,0,0,0,40.171,16.9l-.39-.368a9.664,9.664,0,0,0-3.915-2.238V6.525a2.279,2.279,0,0,0-2.339-2.207H22.338a4.769,4.769,0,0,0-8.811,0H2.339A2.279,2.279,0,0,0,0,6.525V28.59A2.279,2.279,0,0,0,2.339,30.8H11.7v2.942H10.136V35.21H25.73V33.739H24.171V30.8h.3a3.169,3.169,0,0,0,1.409.674,7.408,7.408,0,0,0,3.751,4.95V36.8Zm16.812-7.823V27.324a1.418,1.418,0,0,1,0,2.532ZM22.611,8V5.789H33.527a.759.759,0,0,1,.78.736v7.449a10.243,10.243,0,0,0-1.315-.094,9.888,9.888,0,0,0-6.323,2.259l-.426-1.409a3.846,3.846,0,0,0-3.108-2.618l-2.082-.327v-.518A4.258,4.258,0,0,0,22.611,8Zm0,25.743H13.255V30.8h9.356Zm.78-10.8v1.976H21.831v1.471h1.559V28.59a2.744,2.744,0,0,0,.111.736H2.339a.759.759,0,0,1-.78-.736V26.384H20.272V24.913H1.559V6.525a.759.759,0,0,1,.78-.736H13.255V8a4.258,4.258,0,0,0,1.559,3.272v.518l-2.082.327A3.843,3.843,0,0,0,9.625,14.73l-1.3,4.3H24.344A8.56,8.56,0,0,0,23.391,22.936Zm-13-5.38.734-2.423a2.307,2.307,0,0,1,1.864-1.57l3.385-.532V10.555l-.31-.221A2.864,2.864,0,0,1,14.814,8V5.789a3.124,3.124,0,0,1,6.238,0V8a2.864,2.864,0,0,1-1.25,2.339l-.31.221v2.476l3.385.533a2.306,2.306,0,0,1,1.864,1.57l.682,2.248c-.048.057-.092.115-.138.174Zm15.34,12.3a1.418,1.418,0,0,1,0-2.532Zm0-4.943v.84a3.169,3.169,0,0,0-.78.3V22.936a7.832,7.832,0,0,1,8.041-7.585,8.236,8.236,0,0,1,5.686,2.222l.688.649.211.049A3.185,3.185,0,0,1,42.1,21.325v4.732a3.169,3.169,0,0,0-.78-.3v-.84H38.851a6.928,6.928,0,0,1-5.4-2.546l-.619-.781-1.55,1.462a6.915,6.915,0,0,1-4.773,1.865Zm1.559,5.149V26.35a8.464,8.464,0,0,0,5.1-2.262l.3-.286a8.59,8.59,0,0,0,6.163,2.582h.914V30.06a6.248,6.248,0,0,1-12.475,0ZM31.253,37.1a8.22,8.22,0,0,0,4.547,0L33.527,38.7ZM32.34,39.7,30.75,41.2l-1.032-2.921.5-.085Zm4.5-1.5.5.085L36.3,41.2l-1.591-1.5Zm-6.773,5.729,3.459-3.264,3.46,3.264,1.9-5.378,3.376.579A3.81,3.81,0,0,1,45.3,41.689l1.214,3.818H20.54l1.215-3.818a3.809,3.809,0,0,1,3.037-2.561l3.376-.579Z" transform="translate(0 -1.376)"/></g><g transform="translate(24.656 9.836)"><rect class="a" width="2.115" height="2.115"/></g><g transform="translate(27.738 9.836)"><rect class="a" width="2.115" height="2.115"/></g><g transform="translate(30.82 9.836)"><rect class="a" width="2.115" height="2.115"/></g><g transform="translate(4.23 21.67)"><rect class="a" width="2.115" height="2.115"/></g><g transform="translate(8.459 21.67)"><rect class="a" width="2.115" height="2.115"/></g><g transform="translate(9.246 21.67)"><rect class="a" width="2.115" height="2.115"/></g></g></svg>